<?xml version="1.0" standalone="no"?>
<!DOCTYPE svg PUBLIC "-//W3C//DTD SVG 20010904//EN"
 "http://www.w3.org/TR/2001/REC-SVG-20010904/DTD/svg10.dtd">
<svg version="1.0" xmlns="http://www.w3.org/2000/svg"
 width="1250.000000pt" height="1250.000000pt" viewBox="0 0 1250.000000 1250.000000"
 preserveAspectRatio="xMidYMid meet">
<metadata>
Created by potrace 1.14, written by Peter Selinger 2001-2017
</metadata>
<g transform="translate(0.000000,1250.000000) scale(0.100000,-0.100000)"
fill="#000000" stroke="none">
<path d="M10665 11546 c-88 -17 -129 -34 -345 -140 -706 -348 -1525 -540
-3145 -736 -1716 -208 -2119 -269 -2660 -407 -375 -95 -685 -210 -1021 -378
-506 -253 -875 -515 -1214 -862 -258 -263 -428 -496 -578 -790 -215 -424 -322
-836 -354 -1365 -49 -825 199 -1636 794 -2595 116 -187 137 -235 125 -285 -4
-13 -57 -93 -120 -176 -423 -568 -663 -1154 -743 -1812 -25 -201 -25 -634 -1
-733 53 -216 186 -318 412 -320 127 0 196 24 272 96 104 98 121 163 133 514
14 386 33 537 95 753 131 455 408 923 834 1410 159 181 486 524 600 628 266
243 520 408 791 516 222 87 426 129 725 146 285 17 443 39 930 131 176 33 356
67 400 75 101 18 210 71 270 129 153 150 150 431 -7 588 -59 59 -131 93 -230
108 -84 13 -107 11 -545 -54 -123 -19 -223 -31 -223 -28 1 8 323 262 705 556
744 573 1029 817 1486 1274 325 326 564 594 658 741 86 133 104 282 48 404
-37 80 -136 177 -224 219 -62 29 -77 32 -163 32 -77 0 -104 -4 -144 -23 -85
-39 -155 -102 -290 -262 -395 -467 -826 -872 -1504 -1414 -95 -76 -175 -136
-178 -134 -3 3 18 192 46 419 76 617 75 600 63 687 -17 124 -46 187 -122 263
-91 90 -154 114 -306 114 -98 0 -116 -3 -165 -26 -159 -74 -225 -201 -260
-495 -37 -321 -99 -910 -125 -1193 -27 -306 -35 -348 -72 -429 -40 -85 -121
-161 -326 -309 -789 -564 -1424 -1074 -1954 -1570 -78 -73 -145 -133 -150
-133 -19 0 -240 398 -336 606 -338 729 -441 1369 -316 1951 132 617 592 1247
1209 1658 441 294 943 477 1737 635 493 98 836 149 1816 270 1189 147 1683
228 2259 371 332 82 762 213 976 298 l53 21 -5 -42 c-3 -24 -17 -146 -32 -273
-85 -761 -215 -1421 -423 -2151 -333 -1168 -794 -2122 -1400 -2894 -766 -977
-1670 -1511 -2806 -1656 -108 -14 -212 -18 -455 -19 -372 0 -559 15 -1025 82
-292 41 -413 26 -519 -68 -71 -62 -109 -141 -127 -263 -19 -134 23 -257 116
-345 89 -84 187 -119 475 -170 883 -156 1783 -98 2595 166 1183 384 2144 1206
2907 2488 814 1367 1320 2951 1503 4700 46 442 82 1006 70 1105 -15 136 -59
232 -137 306 -90 85 -213 117 -353 90z"/>
</g>
</svg>
